<svg xmlns="http://www.w3.org/2000/svg" width="1200" height="1046" viewBox="0 0 1200 1046" role="img" aria-labelledby="title desc">
  <title id="title">DocuMate benchmark history</title>
  <desc id="desc">Stored benchmark runs 20260303_134325, 20260306_094033, 20260306_123220, 20260306_163931, 20260307_101108 across pass rate, tool precision, tool recall, citation compliance, p95 latency, and average cost.</desc>
  <defs>
    <style>
      .bg { fill: #f5f1e8; }
      .panel { fill: #fffdfa; stroke: #d9cfbf; stroke-width: 1; }
      .title { font: 700 28px 'Segoe UI', 'Noto Sans KR', sans-serif; fill: #1f2933; }
      .subtitle { font: 400 15px 'Segoe UI', 'Noto Sans KR', sans-serif; fill: #52606d; }
      .metric { font: 700 19px 'Segoe UI', 'Noto Sans KR', sans-serif; fill: #243b53; }
      .axis { font: 400 12px 'Segoe UI', 'Noto Sans KR', sans-serif; fill: #52606d; }
      .tick { font: 600 11px 'Segoe UI', 'Noto Sans KR', sans-serif; fill: #334e68; }
      .value { font: 700 11px 'Segoe UI', 'Noto Sans KR', sans-serif; fill: #102a43; }
      .legend { font: 600 12px 'Segoe UI', 'Noto Sans KR', sans-serif; fill: #334e68; }
      .legend-sub { font: 400 11px 'Segoe UI', 'Noto Sans KR', sans-serif; fill: #52606d; }
      .guide { stroke: #d9cfbf; stroke-width: 1; }
      .trend { stroke: #486581; fill: none; stroke-width: 3; stroke-linecap: round; stroke-linejoin: round; }
      .gate { stroke: #7c2d12; stroke-width: 2; stroke-dasharray: 8 6; }
      .gate-label { font: 600 11px 'Segoe UI', 'Noto Sans KR', sans-serif; fill: #7c2d12; }
    </style>
  </defs>

  <rect class="bg" x="0" y="0" width="1200" height="1046" rx="24"/>
  <text class="title" x="60" y="58">DocuMate Benchmark Trend</text>
  <text class="subtitle" x="60" y="86">5 comparable generated-suite runs, 6 key metrics.</text>
  <circle cx="60" cy="118" r="7" fill="#b07a4f" stroke="#8c5d36" stroke-width="1.5"/>
  <text class="legend" x="76" y="122">20260303_134325</text>
  <text class="legend-sub" x="76" y="139">03-03 15:24, FAIL</text>
  <circle cx="420" cy="118" r="7" fill="#6b7280" stroke="#4b5563" stroke-width="1.5"/>
  <text class="legend" x="436" y="122">20260306_094033</text>
  <text class="legend-sub" x="436" y="139">03-06 10:34, FAIL</text>
  <circle cx="780" cy="118" r="7" fill="#127475" stroke="#0f5c5d" stroke-width="1.5"/>
  <text class="legend" x="796" y="122">20260306_123220</text>
  <text class="legend-sub" x="796" y="139">03-06 13:25, FAIL</text>
  <circle cx="60" cy="164" r="7" fill="#a23b72" stroke="#7f2858" stroke-width="1.5"/>
  <text class="legend" x="76" y="168">20260306_163931</text>
  <text class="legend-sub" x="76" y="185">03-06 17:48, FAIL</text>
  <circle cx="420" cy="164" r="7" fill="#2f6fed" stroke="#1f4db5" stroke-width="1.5"/>
  <text class="legend" x="436" y="168">20260307_101108</text>
  <text class="legend-sub" x="436" y="185">03-07 11:08, FAIL</text>
  <g transform="translate(0,0)">
    <rect class="panel" x="40" y="236" width="540" height="230" rx="18"/>
    <text class="metric" x="66" y="270">pass_rate</text>
    <text class="axis" x="66" y="292">higher is better</text>
    <line class="guide" x1="130" y1="420" x2="500" y2="420"/>
    <line class="guide" x1="130" y1="282" x2="130" y2="420"/>
    <line class="guide" x1="130" y1="282" x2="500" y2="282"/>
    <line class="gate" x1="130" y1="306.8" x2="500" y2="306.8"/>
    <text class="gate-label" x="508" y="310.8">gate 0.82</text>
    <text class="axis" x="96" y="424">0.0</text>
    <text class="axis" x="96" y="286">1.0</text>
    <path class="trend" d="M150.0 367.1 L232.5 385.5 L315.0 385.5 L397.5 370.6 L480.0 369.4"/>
    <line class="guide" x1="150.0" y1="282" x2="150.0" y2="420" opacity="0.35"/>
    <circle cx="150.0" cy="367.1" r="6" fill="#b07a4f" stroke="#8c5d36" stroke-width="1.5"/>
    <text class="value" x="150.0" y="357.1" text-anchor="middle">0.3833</text>
    <text class="tick" x="150.0" y="444" text-anchor="middle">03-03 15:24</text>
    <line class="guide" x1="232.5" y1="282" x2="232.5" y2="420" opacity="0.35"/>
    <circle cx="232.5" cy="385.5" r="6" fill="#6b7280" stroke="#4b5563" stroke-width="1.5"/>
    <text class="value" x="232.5" y="403.5" text-anchor="middle">0.2500</text>
    <text class="tick" x="232.5" y="444" text-anchor="middle">03-06 10:34</text>
    <line class="guide" x1="315.0" y1="282" x2="315.0" y2="420" opacity="0.35"/>
    <circle cx="315.0" cy="385.5" r="6" fill="#127475" stroke="#0f5c5d" stroke-width="1.5"/>
    <text class="value" x="315.0" y="375.5" text-anchor="middle">0.2500</text>
    <text class="tick" x="315.0" y="444" text-anchor="middle">03-06 13:25</text>
    <line class="guide" x1="397.5" y1="282" x2="397.5" y2="420" opacity="0.35"/>
    <circle cx="397.5" cy="370.6" r="6" fill="#a23b72" stroke="#7f2858" stroke-width="1.5"/>
    <text class="value" x="397.5" y="388.6" text-anchor="middle">0.3583</text>
    <text class="tick" x="397.5" y="444" text-anchor="middle">03-06 17:48</text>
    <line class="guide" x1="480.0" y1="282" x2="480.0" y2="420" opacity="0.35"/>
    <circle cx="480.0" cy="369.4" r="6" fill="#2f6fed" stroke="#1f4db5" stroke-width="1.5"/>
    <text class="value" x="480.0" y="359.4" text-anchor="middle">0.3667</text>
    <text class="tick" x="480.0" y="444" text-anchor="middle">03-07 11:08</text>
  </g>

  <g transform="translate(0,0)">
    <rect class="panel" x="620" y="236" width="540" height="230" rx="18"/>
    <text class="metric" x="646" y="270">tool_precision</text>
    <text class="axis" x="646" y="292">higher is better</text>
    <line class="guide" x1="710" y1="420" x2="1080" y2="420"/>
    <line class="guide" x1="710" y1="282" x2="710" y2="420"/>
    <line class="guide" x1="710" y1="282" x2="1080" y2="282"/>
    <line class="gate" x1="710" y1="295.8" x2="1080" y2="295.8"/>
    <text class="gate-label" x="1088" y="299.8">gate 0.90</text>
    <text class="axis" x="676" y="424">0.0</text>
    <text class="axis" x="676" y="286">1.0</text>
    <path class="trend" d="M730.0 308.9 L812.5 298.2 L895.0 298.2 L977.5 294.9 L1060.0 294.5"/>
    <line class="guide" x1="730.0" y1="282" x2="730.0" y2="420" opacity="0.35"/>
    <circle cx="730.0" cy="308.9" r="6" fill="#b07a4f" stroke="#8c5d36" stroke-width="1.5"/>
    <text class="value" x="730.0" y="298.9" text-anchor="middle">0.8049</text>
    <text class="tick" x="730.0" y="444" text-anchor="middle">03-03 15:24</text>
    <line class="guide" x1="812.5" y1="282" x2="812.5" y2="420" opacity="0.35"/>
    <circle cx="812.5" cy="298.2" r="6" fill="#6b7280" stroke="#4b5563" stroke-width="1.5"/>
    <text class="value" x="812.5" y="316.2" text-anchor="middle">0.8824</text>
    <text class="tick" x="812.5" y="444" text-anchor="middle">03-06 10:34</text>
    <line class="guide" x1="895.0" y1="282" x2="895.0" y2="420" opacity="0.35"/>
    <circle cx="895.0" cy="298.2" r="6" fill="#127475" stroke="#0f5c5d" stroke-width="1.5"/>
    <text class="value" x="895.0" y="316.2" text-anchor="middle">0.8824</text>
    <text class="tick" x="895.0" y="444" text-anchor="middle">03-06 13:25</text>
    <line class="guide" x1="977.5" y1="282" x2="977.5" y2="420" opacity="0.35"/>
    <circle cx="977.5" cy="294.9" r="6" fill="#a23b72" stroke="#7f2858" stroke-width="1.5"/>
    <text class="value" x="977.5" y="312.9" text-anchor="middle">0.9062</text>
    <text class="tick" x="977.5" y="444" text-anchor="middle">03-06 17:48</text>
    <line class="guide" x1="1060.0" y1="282" x2="1060.0" y2="420" opacity="0.35"/>
    <circle cx="1060.0" cy="294.5" r="6" fill="#2f6fed" stroke="#1f4db5" stroke-width="1.5"/>
    <text class="value" x="1060.0" y="312.5" text-anchor="middle">0.9091</text>
    <text class="tick" x="1060.0" y="444" text-anchor="middle">03-07 11:08</text>
  </g>

  <g transform="translate(0,0)">
    <rect class="panel" x="40" y="506" width="540" height="230" rx="18"/>
    <text class="metric" x="66" y="540">tool_recall</text>
    <text class="axis" x="66" y="562">higher is better</text>
    <line class="guide" x1="130" y1="690" x2="500" y2="690"/>
    <line class="guide" x1="130" y1="552" x2="130" y2="690"/>
    <line class="guide" x1="130" y1="552" x2="500" y2="552"/>
    <line class="gate" x1="130" y1="572.7" x2="500" y2="572.7"/>
    <text class="gate-label" x="508" y="576.7">gate 0.85</text>
    <text class="axis" x="96" y="694">0.0</text>
    <text class="axis" x="96" y="556">1.0</text>
    <path class="trend" d="M150.0 629.3 L232.5 662.4 L315.0 662.4 L397.5 556.6 L480.0 552.0"/>
    <line class="guide" x1="150.0" y1="552" x2="150.0" y2="690" opacity="0.35"/>
    <circle cx="150.0" cy="629.3" r="6" fill="#b07a4f" stroke="#8c5d36" stroke-width="1.5"/>
    <text class="value" x="150.0" y="619.3" text-anchor="middle">0.4400</text>
    <text class="tick" x="150.0" y="714" text-anchor="middle">03-03 15:24</text>
    <line class="guide" x1="232.5" y1="552" x2="232.5" y2="690" opacity="0.35"/>
    <circle cx="232.5" cy="662.4" r="6" fill="#6b7280" stroke="#4b5563" stroke-width="1.5"/>
    <text class="value" x="232.5" y="680.4" text-anchor="middle">0.2000</text>
    <text class="tick" x="232.5" y="714" text-anchor="middle">03-06 10:34</text>
    <line class="guide" x1="315.0" y1="552" x2="315.0" y2="690" opacity="0.35"/>
    <circle cx="315.0" cy="662.4" r="6" fill="#127475" stroke="#0f5c5d" stroke-width="1.5"/>
    <text class="value" x="315.0" y="652.4" text-anchor="middle">0.2000</text>
    <text class="tick" x="315.0" y="714" text-anchor="middle">03-06 13:25</text>
    <line class="guide" x1="397.5" y1="552" x2="397.5" y2="690" opacity="0.35"/>
    <circle cx="397.5" cy="556.6" r="6" fill="#a23b72" stroke="#7f2858" stroke-width="1.5"/>
    <text class="value" x="397.5" y="574.6" text-anchor="middle">0.9667</text>
    <text class="tick" x="397.5" y="714" text-anchor="middle">03-06 17:48</text>
    <line class="guide" x1="480.0" y1="552" x2="480.0" y2="690" opacity="0.35"/>
    <circle cx="480.0" cy="552.0" r="6" fill="#2f6fed" stroke="#1f4db5" stroke-width="1.5"/>
    <text class="value" x="480.0" y="570.0" text-anchor="middle">1.0000</text>
    <text class="tick" x="480.0" y="714" text-anchor="middle">03-07 11:08</text>
  </g>

  <g transform="translate(0,0)">
    <rect class="panel" x="620" y="506" width="540" height="230" rx="18"/>
    <text class="metric" x="646" y="540">citation_compliance</text>
    <text class="axis" x="646" y="562">higher is better</text>
    <line class="guide" x1="710" y1="690" x2="1080" y2="690"/>
    <line class="guide" x1="710" y1="552" x2="710" y2="690"/>
    <line class="guide" x1="710" y1="552" x2="1080" y2="552"/>
    <line class="gate" x1="710" y1="568.6" x2="1080" y2="568.6"/>
    <text class="gate-label" x="1088" y="572.6">gate 0.88</text>
    <text class="axis" x="676" y="694">0.0</text>
    <text class="axis" x="676" y="556">1.0</text>
    <path class="trend" d="M730.0 647.8 L812.5 690.0 L895.0 690.0 L977.5 572.7 L1060.0 577.3"/>
    <line class="guide" x1="730.0" y1="552" x2="730.0" y2="690" opacity="0.35"/>
    <circle cx="730.0" cy="647.8" r="6" fill="#b07a4f" stroke="#8c5d36" stroke-width="1.5"/>
    <text class="value" x="730.0" y="637.8" text-anchor="middle">0.3056</text>
    <text class="tick" x="730.0" y="714" text-anchor="middle">03-03 15:24</text>
    <line class="guide" x1="812.5" y1="552" x2="812.5" y2="690" opacity="0.35"/>
    <circle cx="812.5" cy="690.0" r="6" fill="#6b7280" stroke="#4b5563" stroke-width="1.5"/>
    <text class="value" x="812.5" y="680.0" text-anchor="middle">0.0000</text>
    <text class="tick" x="812.5" y="714" text-anchor="middle">03-06 10:34</text>
    <line class="guide" x1="895.0" y1="552" x2="895.0" y2="690" opacity="0.35"/>
    <circle cx="895.0" cy="690.0" r="6" fill="#127475" stroke="#0f5c5d" stroke-width="1.5"/>
    <text class="value" x="895.0" y="680.0" text-anchor="middle">0.0000</text>
    <text class="tick" x="895.0" y="714" text-anchor="middle">03-06 13:25</text>
    <line class="guide" x1="977.5" y1="552" x2="977.5" y2="690" opacity="0.35"/>
    <circle cx="977.5" cy="572.7" r="6" fill="#a23b72" stroke="#7f2858" stroke-width="1.5"/>
    <text class="value" x="977.5" y="590.7" text-anchor="middle">0.8500</text>
    <text class="tick" x="977.5" y="714" text-anchor="middle">03-06 17:48</text>
    <line class="guide" x1="1060.0" y1="552" x2="1060.0" y2="690" opacity="0.35"/>
    <circle cx="1060.0" cy="577.3" r="6" fill="#2f6fed" stroke="#1f4db5" stroke-width="1.5"/>
    <text class="value" x="1060.0" y="567.3" text-anchor="middle">0.8167</text>
    <text class="tick" x="1060.0" y="714" text-anchor="middle">03-07 11:08</text>
  </g>

  <g transform="translate(0,0)">
    <rect class="panel" x="40" y="776" width="540" height="230" rx="18"/>
    <text class="metric" x="66" y="810">p95_latency_ms</text>
    <text class="axis" x="66" y="832">lower is better</text>
    <line class="guide" x1="130" y1="960" x2="500" y2="960"/>
    <line class="guide" x1="130" y1="822" x2="130" y2="960"/>
    <line class="guide" x1="130" y1="822" x2="500" y2="822"/>
    <line class="gate" x1="130" y1="920.6" x2="500" y2="920.6"/>
    <text class="gate-label" x="508" y="924.6">gate 20000</text>
    <text class="axis" x="96" y="964">0</text>
    <text class="axis" x="96" y="826">70000</text>
    <path class="trend" d="M150.0 837.6 L232.5 853.8 L315.0 878.3 L397.5 842.8 L480.0 867.4"/>
    <line class="guide" x1="150.0" y1="822" x2="150.0" y2="960" opacity="0.35"/>
    <circle cx="150.0" cy="837.6" r="6" fill="#b07a4f" stroke="#8c5d36" stroke-width="1.5"/>
    <text class="value" x="150.0" y="855.6" text-anchor="middle">62063.0</text>
    <text class="tick" x="150.0" y="984" text-anchor="middle">03-03 15:24</text>
    <line class="guide" x1="232.5" y1="822" x2="232.5" y2="960" opacity="0.35"/>
    <circle cx="232.5" cy="853.8" r="6" fill="#6b7280" stroke="#4b5563" stroke-width="1.5"/>
    <text class="value" x="232.5" y="871.8" text-anchor="middle">53888.1</text>
    <text class="tick" x="232.5" y="984" text-anchor="middle">03-06 10:34</text>
    <line class="guide" x1="315.0" y1="822" x2="315.0" y2="960" opacity="0.35"/>
    <circle cx="315.0" cy="878.3" r="6" fill="#127475" stroke="#0f5c5d" stroke-width="1.5"/>
    <text class="value" x="315.0" y="868.3" text-anchor="middle">41446.1</text>
    <text class="tick" x="315.0" y="984" text-anchor="middle">03-06 13:25</text>
    <line class="guide" x1="397.5" y1="822" x2="397.5" y2="960" opacity="0.35"/>
    <circle cx="397.5" cy="842.8" r="6" fill="#a23b72" stroke="#7f2858" stroke-width="1.5"/>
    <text class="value" x="397.5" y="860.8" text-anchor="middle">59439.2</text>
    <text class="tick" x="397.5" y="984" text-anchor="middle">03-06 17:48</text>
    <line class="guide" x1="480.0" y1="822" x2="480.0" y2="960" opacity="0.35"/>
    <circle cx="480.0" cy="867.4" r="6" fill="#2f6fed" stroke="#1f4db5" stroke-width="1.5"/>
    <text class="value" x="480.0" y="857.4" text-anchor="middle">46977.6</text>
    <text class="tick" x="480.0" y="984" text-anchor="middle">03-07 11:08</text>
  </g>

  <g transform="translate(0,0)">
    <rect class="panel" x="620" y="776" width="540" height="230" rx="18"/>
    <text class="metric" x="646" y="810">avg_cost_per_case_usd</text>
<text class="axis" x="646" y="832">lower is better; gate 0.01 is off chart</text>
    <line class="guide" x1="710" y1="960" x2="1080" y2="960"/>
    <line class="guide" x1="710" y1="822" x2="710" y2="960"/>
    <line class="guide" x1="710" y1="822" x2="1080" y2="822"/>
    <text class="axis" x="676" y="964">0</text>
    <text class="axis" x="676" y="826">0.0026</text>
    <path class="trend" d="M730.0 843.7 L812.5 928.9 L895.0 928.7 L977.5 914.6 L1060.0 916.8"/>
    <line class="guide" x1="730.0" y1="822" x2="730.0" y2="960" opacity="0.35"/>
    <circle cx="730.0" cy="843.7" r="6" fill="#b07a4f" stroke="#8c5d36" stroke-width="1.5"/>
    <text class="value" x="730.0" y="833.7" text-anchor="middle">0.00219042</text>
    <text class="tick" x="730.0" y="984" text-anchor="middle">03-03 15:24</text>
    <line class="guide" x1="812.5" y1="822" x2="812.5" y2="960" opacity="0.35"/>
    <circle cx="812.5" cy="928.9" r="6" fill="#6b7280" stroke="#4b5563" stroke-width="1.5"/>
    <text class="value" x="812.5" y="946.9" text-anchor="middle">0.00058583</text>
    <text class="tick" x="812.5" y="984" text-anchor="middle">03-06 10:34</text>
    <line class="guide" x1="895.0" y1="822" x2="895.0" y2="960" opacity="0.35"/>
    <circle cx="895.0" cy="928.7" r="6" fill="#127475" stroke="#0f5c5d" stroke-width="1.5"/>
    <text class="value" x="895.0" y="918.7" text-anchor="middle">0.00058941</text>
    <text class="tick" x="895.0" y="984" text-anchor="middle">03-06 13:25</text>
    <line class="guide" x1="977.5" y1="822" x2="977.5" y2="960" opacity="0.35"/>
    <circle cx="977.5" cy="914.6" r="6" fill="#a23b72" stroke="#7f2858" stroke-width="1.5"/>
    <text class="value" x="977.5" y="932.6" text-anchor="middle">0.00085588</text>
    <text class="tick" x="977.5" y="984" text-anchor="middle">03-06 17:48</text>
    <line class="guide" x1="1060.0" y1="822" x2="1060.0" y2="960" opacity="0.35"/>
    <circle cx="1060.0" cy="916.8" r="6" fill="#2f6fed" stroke="#1f4db5" stroke-width="1.5"/>
    <text class="value" x="1060.0" y="906.8" text-anchor="middle">0.00081372</text>
    <text class="tick" x="1060.0" y="984" text-anchor="middle">03-07 11:08</text>
  </g>

</svg>
